<?xml version="1.0" encoding="UTF-8"?>
<svg id="Layer_1" data-name="Layer 1" xmlns="http://www.w3.org/2000/svg" viewBox="0 0 279.59 356.26">
  <defs>
    <style>
      .cls-1 {
        fill: #fff;
      }

      .cls-2 {
        fill: #00ffb3;
      }
    </style>
  </defs>
  <g>
    <path class="cls-1" d="m41.43,107.65v126.78h25.06v31.72H.22V107.65h41.22Z"/>
    <path class="cls-1" d="m169.68,176.67h-41.22v-27.55c0-8.01-.44-13.01-1.32-15-.88-1.99-2.82-2.98-5.83-2.98-3.39,0-5.55,1.21-6.46,3.62-.92,2.42-1.37,7.64-1.37,15.66v73.62c0,7.7.46,12.73,1.37,15.08.91,2.35,2.97,3.52,6.17,3.52s5.07-1.18,6.02-3.53c.95-2.36,1.42-7.88,1.42-16.59v-19.92h41.22v6.18c0,16.41-1.16,28.04-3.48,34.9-2.32,6.86-7.44,12.88-15.37,18.04-7.93,5.16-17.71,7.74-29.32,7.74s-22.03-2.19-29.86-6.56c-7.83-4.37-13.02-10.43-15.57-18.16-2.55-7.73-3.82-19.37-3.82-34.9v-46.31c0-11.42.39-19.99,1.17-25.7.78-5.71,3.12-11.21,7-16.5,3.88-5.29,9.27-9.45,16.15-12.48,6.89-3.04,14.8-4.55,23.74-4.55,12.14,0,22.16,2.35,30.06,7.04,7.9,4.69,13.08,10.54,15.57,17.55,2.48,7.01,3.72,17.91,3.72,32.7v15.06Z"/>
  </g>
  <g>
    <path class="cls-1" d="m0,284.99h18.11c5.72,0,10.05.45,13,1.34,2.95.89,5.32,2.69,7.14,5.41,1.81,2.71,2.72,7.09,2.72,13.12,0,4.08-.64,6.92-1.92,8.53-1.28,1.61-3.8,2.84-7.57,3.71,4.2.95,7.04,2.52,8.54,4.72,1.49,2.2,2.24,5.57,2.24,10.12v6.47c0,4.72-.54,8.21-1.62,10.48-1.08,2.27-2.8,3.83-5.15,4.66-2.36.83-7.19,1.25-14.49,1.25H0v-69.8Zm18.15,11.94v15.52c.78-.03,1.38-.04,1.81-.04,1.78,0,2.92-.44,3.41-1.32.49-.88.73-3.38.73-7.52,0-2.18-.2-3.71-.6-4.59-.4-.88-.93-1.43-1.57-1.66-.65-.23-1.9-.36-3.77-.39Zm0,26.39v19.53c2.56-.09,4.19-.49,4.89-1.21.7-.72,1.06-2.49,1.06-5.3v-6.51c0-2.99-.32-4.8-.95-5.43-.63-.63-2.3-.99-5-1.08Z"/>
    <path class="cls-1" d="m80.14,284.99l10.38,69.8h-18.55l-.97-12.55h-6.49l-1.09,12.55h-18.77l9.26-69.8h26.24Zm-9.62,44.88c-.92-7.91-1.84-17.68-2.77-29.32-1.85,13.37-3.01,23.14-3.48,29.32h6.25Z"/>
    <path class="cls-1" d="m132.06,306.11h-16.86v-5.17c0-2.42-.22-3.95-.65-4.61s-1.15-.99-2.16-.99c-1.09,0-1.92.45-2.48,1.34-.56.89-.84,2.24-.84,4.06,0,2.33.31,4.08.95,5.26.6,1.18,2.31,2.6,5.13,4.27,8.08,4.8,13.17,8.73,15.27,11.81,2.1,3.08,3.15,8.03,3.15,14.88,0,4.97-.58,8.64-1.75,10.99-1.16,2.36-3.41,4.33-6.75,5.93-3.33,1.59-7.21,2.39-11.64,2.39-4.86,0-9-.92-12.44-2.76-3.44-1.84-5.68-4.18-6.75-7.03-1.06-2.85-1.6-6.88-1.6-12.12v-4.57h16.86v8.49c0,2.62.24,4.3.71,5.04.47.75,1.31,1.12,2.52,1.12s2.11-.47,2.69-1.42c.59-.95.88-2.36.88-4.23,0-4.11-.56-6.8-1.68-8.06-1.15-1.26-3.98-3.38-8.49-6.34-4.51-2.99-7.5-5.16-8.97-6.51-1.47-1.35-2.68-3.22-3.64-5.61-.96-2.39-1.44-5.43-1.44-9.14,0-5.35.68-9.25,2.05-11.73,1.36-2.47,3.57-4.4,6.62-5.8,3.05-1.39,6.73-2.09,11.04-2.09,4.71,0,8.73.76,12.05,2.29s5.52,3.44,6.6,5.76c1.08,2.31,1.62,6.25,1.62,11.79v2.76Z"/>
    <path class="cls-1" d="m139.26,284.99h30.27v13.97h-12.12v13.24h11.34v13.28h-11.34v15.35h13.32v13.97h-31.47v-69.8Z"/>
  </g>
  <g>
    <path class="cls-1" d="m191.1,227.33c0-30.28-.02-60.55.03-90.83,0-2.3-.38-3.92-2.5-5.41-4.23-2.99-5.92-9.03-4.42-13.88,1.66-5.38,6.37-9.44,11.88-9.47,21.83-.12,43.65-.1,65.48,0,5.47.03,10.11,3.79,11.87,8.96,1.73,5.1.28,11.06-4.08,14.28-2.15,1.6-2.64,3.25-2.64,5.71.06,59.95.07,119.9.03,179.85-.01,19.48-13.5,34.97-32.73,37.85-21.61,3.23-42.43-13.64-42.78-35.52-.45-27.98-.1-55.98-.09-83.97,0-2.52,0-5.04,0-7.56-.02,0-.04,0-.06,0Zm9.19-4h-.02c0,12.86,0,25.71,0,38.57,0,18.38-.16,36.77.08,55.14.27,21.16,22.33,34.92,40.95,25.55,10.97-5.52,16.26-14.73,16.25-27.11-.05-61.99,0-123.98-.07-185.98,0-2.76.25-4.59,3.66-4.66,2.31-.05,3.72-1.65,3.61-4.1-.12-2.48-1.72-3.56-4.03-3.73-.95-.07-1.92-.03-2.88-.03-16.43,0-32.86,0-49.29,0-3.72,0-7.44-.01-11.15.02-2.53.02-4.2,1.23-4.29,3.84-.08,2.4,1.36,3.96,3.71,4.01,3.16.07,3.53,1.72,3.53,4.41-.08,31.36-.05,62.71-.05,94.07Z"/>
    <path class="cls-2" d="m264,30.52c-8.48-.16-15.41-7.29-15.14-15.57.27-8.42,7.36-15.13,15.79-14.95,8.1.18,15.06,7.2,14.94,15.06-.13,8.81-7.01,15.62-15.59,15.46Z"/>
    <path class="cls-2" d="m266.72,56.4c0,6.43-5.26,11.66-11.66,11.57-6.24-.08-11.34-5.26-11.35-11.54-.01-6.48,5.19-11.61,11.67-11.53,6.35.08,11.33,5.13,11.34,11.49Z"/>
    <path class="cls-2" d="m236.48,41.79c.05,5.43-4.35,9.97-9.67,9.98-5.21.01-9.83-4.6-9.86-9.86-.03-5.36,4.4-9.9,9.72-9.95,5.37-.05,9.77,4.36,9.81,9.83Z"/>
    <path class="cls-2" d="m229.46,85.45c-3.99.08-7.14-2.83-7.31-6.77-.18-4.06,2.94-7.46,6.94-7.57,3.99-.1,7.31,3.16,7.34,7.19.02,3.92-3.04,7.06-6.97,7.14Z"/>
    <path class="cls-2" d="m206.43,184.75c11.41,0,22.44,0,33.46,0,3,0,6,.09,8.99-.04,2.17-.1,2.99.69,2.94,2.9-.11,4.68-.03,9.37-.03,14.06,0,38.21,0,76.42,0,114.63,0,12.91-9.83,23.13-22.46,23.37-12.62.24-23.12-9.77-23.15-22.59-.11-43.14-.05-86.27-.04-129.41,0-.81.16-1.62.29-2.91Zm27.73,29.7c.08-4.7-3.58-8.54-8.26-8.66-4.56-.12-8.58,3.72-8.68,8.29-.1,4.55,3.74,8.57,8.3,8.71,4.55.13,8.55-3.73,8.63-8.33Zm-7.05,70.84c-3.59-.07-6.38,2.6-6.5,6.21-.12,3.8,2.58,6.66,6.35,6.72,3.53.05,6.48-2.72,6.56-6.17.08-3.71-2.75-6.69-6.41-6.76Zm8.38-36.49c-2.95-.06-5.33,2.09-5.47,4.94-.14,2.98,2.28,5.48,5.31,5.48,2.95,0,5.18-2.19,5.24-5.15.06-2.95-2.13-5.22-5.08-5.27Z"/>
  </g>
</svg>